<svg width="1920" height="583" viewBox="0 0 1920 583" fill="none" xmlns="http://www.w3.org/2000/svg">
<g opacity="0.1">
<path d="M1432.25 582.657C1375.3 582.657 1324.8 572.657 1279.73 552.487C1211.28 521.917 1167.27 473.727 1128.45 431.227C1089.63 388.727 1056.03 351.947 1010.59 350.127C978.861 348.847 941.978 364.747 897.608 398.727C819.774 458.347 724.16 500.357 613.427 523.597C524.83 542.187 426.424 548.877 320.915 543.457C141.496 534.247 1.86088 492.597 0.476562 492.157L2.08959 490.697C3.4739 491.117 142.591 532.627 321.385 541.787C486.298 550.247 719.573 532.107 894.948 397.787C940.69 362.787 977.501 347.127 1010.83 348.457C1058.14 350.357 1092.07 387.457 1131.36 430.457C1170.04 472.817 1213.89 520.827 1281.83 551.167C1360.45 586.287 1456 590.267 1573.96 563.337C1763.74 520.017 1920.45 558.437 1922 558.827L1920.6 560.347C1919.05 559.957 1763.62 521.887 1575.25 564.887C1523.49 576.737 1475.96 582.657 1432.25 582.657Z" fill="url(#paint0_linear_5073_47)"/>
<path d="M1411.47 579.707C1358.33 579.707 1310.86 570.557 1268.11 552.227C1200.28 523.137 1155.79 476.077 1116.52 434.557C1076.39 392.097 1041.72 355.437 994.739 353.457C962.779 352.117 926.041 367.017 882.308 399.037C804.45 456.037 709.618 496.167 600.438 518.287C513.094 535.987 416.457 542.287 313.199 536.967C137.452 527.967 1.66851 487.867 0.320312 487.457L1.9213 485.997C3.2695 486.397 138.571 526.318 313.621 535.298C475.092 543.598 704.25 526.497 879.684 398.057C924.127 365.517 961.901 350.367 994.992 351.777C1043.8 353.827 1078.84 390.897 1119.42 433.777C1158.53 475.147 1202.86 522.037 1270.16 550.897C1347.9 584.227 1441.74 586.757 1557.07 558.627C1748.9 511.837 1920.25 551.007 1921.96 551.407L1920.64 552.947C1918.94 552.548 1748.88 513.697 1558.44 560.157C1505.11 573.187 1456.27 579.707 1411.47 579.707Z" fill="url(#paint1_linear_5073_47)"/>
<path d="M1391.15 576.756C1341.6 576.756 1296.96 568.446 1256.47 551.756C1189.25 524.116 1144.28 478.186 1104.61 437.666C1063.18 395.366 1027.41 358.826 978.898 356.666C946.818 355.256 910.175 369.186 867.057 399.296C789.186 453.676 695.137 491.906 587.522 512.926C501.442 529.726 406.55 535.616 305.507 530.416C133.491 521.596 1.48787 483.146 0.175781 482.756L1.7527 481.286C3.06478 481.676 134.575 519.996 305.88 528.796C463.849 536.926 688.974 520.876 864.421 398.336C908.249 367.726 945.77 353.546 979.114 355.036C1029.41 357.266 1065.56 394.186 1107.41 436.936C1187.17 518.406 1286.43 619.786 1540.18 553.936C1734.22 503.596 1920.07 543.596 1921.93 544.006L1920.72 545.556C1918.88 545.156 1734.28 505.456 1541.68 555.436C1486.88 569.646 1436.89 576.756 1391.15 576.756Z" fill="url(#paint2_linear_5073_47)"/>
<path d="M1370.59 573.899C1227.63 573.899 1154.31 501.599 1092.52 440.689C1049.83 398.609 1012.96 362.259 962.948 359.919C930.627 358.419 894.238 371.409 851.721 399.659C773.839 451.419 680.584 487.749 574.558 507.659C489.717 523.599 396.595 529.059 297.743 523.959C129.519 515.289 1.29551 478.429 0.0195312 478.059L1.58441 476.599C2.86038 476.969 130.59 513.679 298.165 522.299C452.678 530.249 673.735 515.239 849.169 398.629C892.42 369.889 929.736 356.689 963.225 358.249C1014.99 360.679 1052.23 397.389 1095.36 439.909C1175.59 518.989 1275.43 617.409 1523.31 549.219C1719.45 495.219 1919.89 536.169 1921.9 536.589L1920.7 538.149C1918.71 537.739 1719.61 497.149 1524.81 550.709C1465.62 566.979 1414.78 573.889 1370.59 573.899Z" fill="url(#paint3_linear_5073_47)"/>
<path d="M1351.64 570.919C1333.19 570.956 1314.78 569.617 1296.62 566.919C1193.96 551.479 1133.62 494.109 1080.39 443.489C1036.45 401.699 998.531 365.609 946.986 363.059C914.485 361.459 878.372 373.519 836.41 399.969C758.539 449.099 666.091 483.529 561.629 502.309C478.077 517.309 386.7 522.419 290.051 517.439C125.559 508.959 1.15098 473.719 -0.125 473.359L1.42784 471.889C2.63159 472.239 126.618 507.339 290.473 515.769C441.567 523.539 658.495 509.599 833.918 398.899C876.579 371.989 913.667 359.719 947.287 361.379C1000.51 364.019 1038.83 400.469 1083.21 442.679C1136.18 493.009 1196.14 550.059 1297.48 565.299C1358.37 574.469 1426.72 567.649 1506.41 544.489C1704.77 486.819 1919.7 528.729 1921.86 529.159L1920.65 530.729C1918.52 530.299 1704.95 488.729 1507.93 545.959C1450.59 562.649 1398.95 570.919 1351.64 570.919Z" fill="url(#paint4_linear_5073_47)"/>
<path d="M1332.16 567.988C1315.49 568.017 1298.84 566.886 1282.4 564.608C1182.08 550.608 1121.54 495.088 1068.13 446.118C1022.95 404.698 983.941 368.918 930.904 366.118C898.294 364.388 862.29 375.568 820.99 400.268C743.155 446.758 651.538 479.268 548.653 496.938C466.365 511.068 376.745 515.758 282.287 510.888C121.622 502.598 0.922182 468.998 -0.269531 468.658L1.25923 467.178C2.46298 467.518 122.67 500.998 282.817 509.238C430.481 516.838 643.328 503.918 818.678 399.178C860.81 374.038 897.608 362.698 931.337 364.458C985.964 367.328 1025.36 403.458 1070.97 445.288C1124.07 493.968 1184.25 549.148 1283.27 562.988C1343.55 571.408 1411.03 563.808 1489.55 539.758C1594.4 507.648 1706.35 504.458 1781.81 507.428C1863.53 510.658 1921.29 521.618 1921.86 521.728L1920.75 523.308C1918.46 522.868 1690.45 480.178 1491.19 541.218C1432.72 559.118 1380.31 567.988 1332.16 567.988Z" fill="url(#paint5_linear_5073_47)"/>
<path d="M1313 565.057C1297.99 565.08 1282.99 564.137 1268.16 562.237C1170.12 549.597 1109.47 495.927 1055.85 448.597C1009.47 407.597 969.423 372.207 915.014 369.167C882.296 367.327 846.568 377.597 805.785 400.597C728.011 444.447 637.26 475.067 535.929 491.597C454.904 504.827 367.03 509.117 274.715 504.357C117.709 496.277 0.740901 464.277 -0.390625 463.957L1.1261 462.477C2.32985 462.797 118.781 494.647 275.232 502.697C419.49 510.127 628.244 498.237 803.462 399.447C844.979 376.047 881.598 365.597 915.411 367.447C971.446 370.587 1011.88 406.317 1058.66 447.697C1111.88 494.777 1172.21 548.117 1268.93 560.597C1328.65 568.307 1395.32 559.937 1472.68 535.027C1578.7 500.897 1695.19 497.077 1774.23 499.877C1859.84 502.877 1921.23 514.177 1921.84 514.287L1920.76 515.877C1920.16 515.767 1859.1 504.577 1773.9 501.557C1695.35 498.767 1579.62 502.557 1474.36 536.457C1414.94 555.597 1361.73 565.057 1313 565.057Z" fill="url(#paint6_linear_5073_47)"/>
<path d="M1293.97 562.136C1280.52 562.15 1267.09 561.371 1253.77 559.806C1157.98 548.436 1097.12 496.596 1043.42 450.896C997.857 412.096 954.811 375.446 898.969 372.116C866.191 370.116 830.68 379.576 790.451 400.906C712.76 442.116 622.816 470.826 523.121 486.236C443.397 498.596 357.281 502.466 267.18 497.826C113.834 489.926 0.561213 459.596 -0.570312 459.256L0.922339 457.766C2.04183 458.066 114.845 488.296 267.613 496.156C408.452 503.406 613.15 492.556 788.187 399.726C829.115 377.996 865.516 368.416 899.366 370.446C956.749 373.866 1000.18 410.856 1046.22 450.016C1099.59 495.456 1160.06 546.956 1254.53 558.166C1313.71 565.166 1379.55 556.076 1455.85 530.316C1562.98 494.116 1684.07 489.676 1766.68 492.316C1856.18 495.176 1921.23 506.746 1921.88 506.866L1920.82 508.456C1920.18 508.346 1855.47 496.836 1766.39 493.986C1684.25 491.366 1564.03 495.786 1457.59 531.716C1397.26 552.076 1343.33 562.136 1293.97 562.136Z" fill="url(#paint7_linear_5073_47)"/>
<path d="M1275.1 559.227C1263.12 559.235 1251.16 558.6 1239.28 557.327C1145.68 547.187 1084.68 497.177 1030.87 453.057C984.222 414.807 940.153 378.677 882.975 375.057C850.1 372.967 814.854 381.527 775.167 401.257C697.585 439.777 608.507 466.597 510.414 480.867C431.953 492.297 347.582 495.807 259.624 491.277C109.986 483.597 0.384476 454.847 -0.710938 454.597L0.817826 453.057C1.9012 453.347 111.045 481.947 260.142 489.607C397.634 496.687 598.215 486.867 773 400.007C813.35 379.907 849.462 371.197 883.36 373.357C942.055 377.097 986.521 413.557 1033.59 452.147C1087.06 495.987 1147.67 545.687 1239.95 555.677C1298.57 562.017 1363.67 552.187 1438.93 525.587C1547.26 487.297 1672.82 482.237 1759.04 484.727C1852.43 487.427 1921.14 499.337 1921.82 499.457L1920.79 501.047C1920.11 500.927 1851.74 489.047 1758.78 486.407C1673.08 483.947 1548.32 488.967 1440.73 526.987C1379.64 548.597 1325.08 559.227 1275.1 559.227Z" fill="url(#paint8_linear_5073_47)"/>
<path d="M1256.33 556.329C1245.75 556.336 1235.18 555.829 1224.67 554.809C1133.18 545.809 1072.06 497.619 1018.15 455.069C970.459 417.439 925.463 381.889 866.913 377.889C834.026 375.649 798.997 383.379 759.779 401.539C682.341 437.439 594.155 462.329 497.662 475.539C420.49 486.069 337.864 489.179 252.097 484.769C106.166 477.219 0.199926 450.139 -0.859375 449.869L0.573089 448.359C1.62035 448.629 107.153 475.589 252.59 483.059C386.724 489.949 583.237 481.169 757.708 400.279C797.625 381.779 833.545 373.899 867.358 376.219C927.317 380.319 972.758 416.219 1020.86 454.139C1074.42 496.409 1135.12 544.319 1225.28 553.139C1283.45 558.839 1347.8 548.279 1422.05 520.859C1531.59 480.419 1661.59 474.739 1751.43 477.089C1848.7 479.639 1921.09 491.899 1921.81 492.019L1920.8 493.599C1920.09 493.479 1848.03 481.279 1751.18 478.749C1661.88 476.419 1532.62 482.069 1423.91 522.209C1362.06 545.079 1306.88 556.329 1256.33 556.329Z" fill="url(#paint9_linear_5073_47)"/>
<path d="M1237.69 553.456C1228.45 553.461 1219.21 553.06 1210.01 552.256C1120.57 544.416 1061.95 499.946 1005.37 456.946C956.691 419.946 910.72 385.086 850.953 380.696C818.055 378.286 783.242 385.206 744.566 401.856C667.309 435.106 580.037 458.066 485.158 470.116C409.321 479.756 328.405 482.466 244.781 478.176C102.425 470.866 0.0580257 445.426 -0.953125 445.176L0.443226 443.656C1.45438 443.916 103.4 469.246 245.214 476.516C376.001 483.216 568.445 475.516 742.507 400.516C781.93 383.516 817.549 376.516 851.411 378.986C912.573 383.476 958.942 418.676 1008.03 455.986C1064.28 498.696 1122.46 542.856 1210.54 550.586C1268.23 555.646 1331.92 544.376 1405.22 516.126C1515.81 473.516 1650.4 467.216 1743.84 469.436C1844.95 471.836 1921.08 484.436 1921.83 484.596L1920.85 486.196C1920.09 486.066 1844.36 473.496 1743.59 471.116C1650.7 468.906 1516.93 475.176 1407.13 517.486C1344.55 541.596 1288.83 553.446 1237.69 553.456Z" fill="url(#paint10_linear_5073_47)"/>
<path d="M1219.09 550.599C1211 550.599 1203.02 550.292 1195.14 549.679C1107.7 542.909 1049.05 500.099 992.343 458.679C942.736 422.459 895.874 388.259 834.916 383.449C801.982 380.849 767.41 386.969 729.191 402.149C554.743 471.449 365.454 478.149 237.387 471.609C98.6542 464.519 -0.16168 440.709 -1.13672 440.469L0.22352 438.949C1.19856 439.179 99.6052 462.879 237.808 469.949C365.285 476.469 553.66 469.769 727.241 400.819C766.194 385.349 801.561 379.129 835.398 381.819C897.704 386.739 944.939 421.229 994.967 457.739C1051.29 498.859 1109.53 541.379 1195.61 548.049C1252.87 552.489 1315.98 540.509 1388.3 511.439C1499.95 466.609 1639.08 459.689 1736.13 461.779C1841.22 464.049 1921 477.079 1921.78 477.209L1920.81 478.809C1920.03 478.679 1840.58 465.709 1735.91 463.459C1639.42 461.389 1501.18 468.259 1390.27 512.779C1327.06 538.139 1270.77 550.599 1219.09 550.599Z" fill="url(#paint11_linear_5073_47)"/>
<path d="M1200.54 547.788C1193.68 547.788 1186.89 547.564 1180.18 547.118C1094.71 541.368 1035.97 500.168 979.15 460.328C904.626 408.038 834.23 358.658 713.831 402.488C539.973 465.788 354.8 471.488 230.056 465.088C94.9707 458.168 -0.330287 435.998 -1.28125 435.768L0.0549134 434.238C0.993839 434.458 95.8976 456.538 230.525 463.408C354.692 469.758 539.01 464.098 712.025 401.108C834.989 356.328 906.287 406.358 981.774 459.328C1038.15 498.878 1096.44 539.788 1180.59 545.448C1237.47 549.268 1299.9 536.598 1371.43 506.698C1484.11 459.598 1627.83 452.058 1728.44 454.048C1837.45 456.188 1920.95 469.628 1921.78 469.758L1920.82 471.368C1919.99 471.238 1836.82 457.858 1728.22 455.728C1628.13 453.728 1485.3 461.248 1373.44 508.008C1309.59 534.698 1252.79 547.788 1200.54 547.788Z" fill="url(#paint12_linear_5073_47)"/>
<path d="M1182.02 545.016C1176.32 545.016 1170.68 544.856 1165.08 544.536C1081.47 539.776 1022.69 500.156 965.852 461.846C890.341 410.966 818.994 362.906 698.535 402.796C525.387 460.126 344.307 464.796 222.885 458.556C91.3509 451.826 -0.495306 431.276 -1.41016 431.076L-0.122143 429.526C0.816783 429.736 92.3019 450.196 223.306 456.886C344.199 463.056 524.485 458.426 696.801 401.376C819.777 360.666 891.978 409.306 968.392 460.816C1024.82 498.816 1083.18 538.176 1165.43 542.816C1222.01 546.046 1283.83 532.666 1354.57 501.916C1468.2 452.526 1616.41 444.386 1720.72 446.256C1833.65 448.256 1920.91 462.146 1921.75 462.256L1920.8 463.866C1919.94 463.726 1833.02 449.866 1720.5 447.866C1616.79 446.016 1469.44 454.106 1356.6 503.146C1292.14 531.286 1234.82 545.016 1182.02 545.016Z" fill="url(#paint13_linear_5073_47)"/>
<path d="M1163.49 542.298C1158.92 542.298 1154.37 542.191 1149.85 541.978C1068 538.158 1009.21 500.088 952.307 463.268C875.941 413.848 803.716 367.168 683.184 403.118C510.867 454.488 333.868 458.118 215.743 452.048C87.7727 445.508 -0.666862 426.598 -1.59375 426.378L-0.389999 424.818C0.476701 425.008 88.5552 443.818 216.081 450.378C333.735 456.378 509.964 452.788 681.511 401.648C736.751 385.178 787.26 384.578 835.916 399.818C879.251 413.378 915.905 437.098 954.726 462.208C1011.21 498.758 1069.61 536.538 1150.06 540.308C1206.3 542.948 1267.62 528.848 1337.6 497.248C1452.16 445.518 1604.93 436.778 1712.86 438.538C1829.74 440.448 1920.78 454.768 1921.69 454.918L1920.75 456.528C1919.85 456.388 1829.14 442.118 1712.68 440.218C1605.33 438.468 1453.46 447.158 1339.71 498.518C1274.71 527.918 1216.85 542.298 1163.49 542.298Z" fill="url(#paint14_linear_5073_47)"/>
<path d="M1144.93 539.596C1141.43 539.596 1137.94 539.533 1134.48 539.406C1054.42 536.516 995.511 499.956 938.538 464.596C861.341 416.686 788.442 371.446 667.838 403.426C496.448 448.886 323.566 451.426 208.692 445.556C84.248 439.196 -0.833156 421.856 -1.67578 421.676L-0.47203 420.116C0.34652 420.286 85.0786 437.596 209.065 443.886C323.421 449.726 495.678 447.186 666.334 401.886C789.273 369.336 866.397 417.206 940.945 463.506C997.522 498.596 1056.01 534.886 1134.75 537.766C1190.72 539.766 1251.51 525.016 1320.86 492.526C1436.26 438.426 1593.55 429.066 1705.17 430.746C1826.02 432.556 1920.86 447.346 1921.85 447.496L1920.91 449.106C1919.97 448.956 1825.46 434.226 1705.04 432.426C1594 430.746 1437.64 440.056 1323.05 493.776C1257.26 524.596 1198.89 539.596 1144.93 539.596Z" fill="url(#paint15_linear_5073_47)"/>
<path d="M1126.33 537.057C1123.92 537.057 1121.4 537.057 1118.95 536.957C1040.56 534.897 981.552 499.787 924.494 465.837C850.042 421.527 773.05 375.727 652.446 403.747C482.091 443.337 313.277 444.827 201.653 439.107C80.7726 432.917 -0.986137 417.147 -1.80469 416.987L-0.673162 415.407C0.133351 415.567 81.5791 431.267 202.123 437.407C313.337 443.097 481.501 441.607 651.122 402.177C773.904 373.657 851.643 419.927 926.865 464.687C983.441 498.377 1042.03 533.217 1119.06 535.247C1174.73 536.697 1235.21 521.177 1303.89 487.767C1420.09 431.257 1581.96 421.297 1697.22 422.887C1822.03 424.617 1920.73 439.887 1921.71 440.037L1920.78 441.657C1919.8 441.497 1821.46 426.287 1697.06 424.577C1582.34 422.997 1421.4 432.887 1306.09 489.007C1239.8 521.307 1180.88 537.047 1126.33 537.057Z" fill="url(#paint16_linear_5073_47)"/>
<path d="M1107.66 534.596H1103.26C1026.41 533.286 967.331 499.596 910.164 466.986C835.147 424.226 757.577 379.986 637.13 404.056C467.87 437.836 303.185 438.276 194.787 432.696C77.3373 426.696 -1.15929 412.426 -1.92969 412.286L-0.870387 410.696C-0.0879487 410.836 78.1198 425.006 195.209 431.026C303.233 436.586 467.389 436.136 635.986 402.476C758.48 378.026 836.796 422.676 912.536 465.846C971.869 499.676 1027.92 531.626 1103.35 532.846C1158.82 533.726 1218.91 517.456 1287.08 483.086C1403.98 424.086 1570.39 413.576 1689.36 415.086C1818.17 416.726 1920.74 432.496 1921.76 432.656L1920.85 434.266C1919.82 434.106 1817.6 418.396 1689.21 416.766C1570.83 415.256 1405.4 425.766 1289.32 484.296C1222.31 518.086 1162.83 534.596 1107.66 534.596Z" fill="url(#paint17_linear_5073_47)"/>
<path d="M1088.91 532.149H1087.38C1012.09 531.719 955.441 500.809 895.458 468.079C819.995 426.889 741.956 384.299 621.773 404.369C453.778 432.369 293.149 431.799 187.929 426.369C73.9583 420.429 -1.31227 407.719 -2.05859 407.599L-1.04744 405.999C1.92582 406.509 300.324 456.269 620.786 402.769C742.907 382.389 821.644 425.369 897.793 466.919C957.283 499.389 1013.47 530.059 1087.42 530.469C1142.79 530.859 1202.55 513.739 1270.22 478.369C1387.74 416.929 1558.7 405.769 1681.4 407.219C1814.22 408.789 1920.7 425.069 1921.76 425.219L1920.85 426.829C1919.79 426.669 1813.72 410.439 1681.3 408.879C1559.31 407.429 1389.27 418.529 1272.56 479.539C1204.8 514.929 1144.73 532.149 1088.91 532.149Z" fill="url(#paint18_linear_5073_47)"/>
<path d="M1069.99 529.857C996.721 529.857 940.169 500.337 880.318 469.087C804.482 429.517 726.166 388.597 606.393 404.677C502.389 418.677 401.755 423.357 313.376 423.357C130.574 423.357 -0.261498 403.197 -2.1875 402.897L-1.24857 401.277C1.60432 401.727 287.459 445.747 605.598 403.047C727.177 386.727 806.167 427.987 882.594 467.887C942.312 499.067 998.599 528.507 1071.27 528.177C1126.51 527.907 1186.07 510.067 1253.35 473.637C1371.42 409.637 1546.94 397.897 1673.36 399.307C1810.22 400.817 1920.66 417.637 1921.76 417.807L1920.84 419.417C1919.75 419.247 1809.65 402.487 1673.22 400.987C1547.47 399.627 1372.92 411.297 1255.66 474.797C1187.71 511.597 1127.45 529.597 1071.31 529.857H1069.99Z" fill="url(#paint19_linear_5073_47)"/>
<path d="M1050.93 527.697C980.233 527.697 924.066 499.697 864.661 470.017C788.68 432.097 710.123 392.887 591.024 405.017C498.034 414.467 408.644 417.807 328.787 417.807C136.837 417.777 -0.390724 398.477 -2.30469 398.197L-1.45002 396.597C1.28249 396.987 274.678 435.417 590.41 403.347C711.146 391.077 790.317 430.597 866.888 468.797C926.919 498.797 983.652 527.047 1054.93 525.987C1110.12 525.147 1169.51 506.477 1236.48 468.907C1355.02 402.417 1535.01 390.047 1665.28 391.387C1806.11 392.837 1920.62 410.207 1921.76 410.387L1920.84 412.007C1919.71 411.827 1805.62 394.517 1665.13 393.087C1535.68 391.747 1356.55 404.037 1238.83 470.087C1171.24 507.997 1111.12 526.847 1055.01 527.697H1050.93Z" fill="url(#paint20_linear_5073_47)"/>
<path d="M1031.7 525.698C963.307 525.698 907.429 499.038 848.361 470.868C772.416 434.598 693.775 397.128 575.651 405.288C261.713 426.918 0.186039 393.838 -2.41406 393.498L-1.59551 391.868C1.00459 392.198 261.954 425.208 575.278 403.618C694.919 395.388 777.616 434.818 850.588 469.618C911.076 498.468 968.242 525.678 1038.37 523.918C1093.6 522.488 1152.9 502.918 1219.66 464.178C1272.19 433.668 1341.81 411.468 1426.63 398.178C1494.35 387.598 1571.9 382.598 1657.17 383.448C1802.15 384.848 1920.64 402.778 1921.82 402.958L1920.79 404.598C1919.59 404.418 1801.49 386.538 1656.93 385.158C1523.67 383.868 1340.03 396.748 1221.96 465.338C1154.64 504.438 1094.61 524.158 1038.45 525.598C1036.22 525.668 1033.94 525.698 1031.7 525.698Z" fill="url(#paint21_linear_5073_47)"/>
<path d="M1012.28 523.848C945.912 523.848 890.179 498.448 831.303 471.628C759.006 438.688 677.042 401.358 560.279 405.628C248.844 416.868 -0.0554292 389.088 -2.53516 388.808L-1.84902 387.158C0.630709 387.438 249.109 415.158 560.05 403.908C678.186 399.638 760.655 437.198 833.422 470.358C894.536 498.198 952.22 524.488 1021.47 521.998C1076.84 519.998 1136.1 499.538 1202.74 459.468C1255.4 427.808 1326 404.748 1412.58 390.928C1481.77 379.928 1561.34 374.698 1648.89 375.488C1797.98 376.838 1920.53 395.348 1921.76 395.538L1920.84 397.158C1919.64 396.968 1797.42 378.518 1648.79 377.158C1511.74 375.918 1323.57 389.388 1205.21 460.558C1137.98 500.988 1077.96 521.638 1021.74 523.668C1018.53 523.798 1015.39 523.848 1012.28 523.848Z" fill="url(#paint22_linear_5073_47)"/>
<path d="M992.368 522.047C927.666 522.047 872.691 498.107 813.346 472.277C741.831 441.147 660.819 405.877 546.884 405.877H544.91C235.834 406.967 -0.293311 384.337 -2.64062 384.107L-2.05079 382.447C0.296527 382.677 236.184 405.297 544.873 404.197H546.896C661.986 404.197 743.468 439.667 815.404 470.977C869.995 494.737 921.539 517.187 979.247 520.167C1043.26 523.497 1108.87 502.687 1185.88 454.747C1238.61 421.917 1310.15 397.987 1398.5 383.637C1469.11 372.157 1550.52 366.707 1640.59 367.507C1793.8 368.817 1920.5 387.917 1921.76 388.117L1920.85 389.727C1919.64 389.537 1793.25 370.497 1640.47 369.187C1499.63 368.007 1306.88 382.037 1188.35 455.827C1110.07 504.597 1047.67 522.047 992.368 522.047Z" fill="url(#paint23_linear_5073_47)"/>
<path d="M972.326 520.738C969.172 520.738 966.026 520.682 962.888 520.568C903.904 518.418 850.675 496.248 794.291 472.788C722.969 443.098 642.137 409.448 529.526 406.178C222.762 397.248 -0.533823 379.598 -2.79688 379.408L-2.30334 377.748C-0.0884354 377.928 223.063 395.578 529.658 404.498C643.292 407.798 724.558 441.628 796.253 471.498C911.464 519.498 1002.48 557.338 1168.97 450.048C1221.73 416.048 1294.16 391.248 1384.3 376.348C1456.31 364.428 1539.73 358.768 1632.17 359.528C1789.53 360.818 1920.4 380.528 1921.71 380.728L1920.8 382.338C1919.51 382.138 1788.99 362.488 1632.05 361.218C1487.31 360.038 1290.08 374.678 1171.47 451.108C1098.02 498.448 1034.42 520.738 972.326 520.738Z" fill="url(#paint24_linear_5073_47)"/>
<path d="M952.079 519.507C890.326 519.507 835.471 497.647 773.923 473.117C703.516 445.047 623.707 413.237 514.118 406.467C209.436 387.597 -0.762536 374.837 -2.79688 374.707L-2.42371 373.037C-0.341223 373.167 209.858 385.957 514.575 404.797C625.031 411.617 705.213 443.577 775.946 471.797C836.133 495.797 888.075 516.497 946.493 517.797C1010.65 519.237 1075.97 496.187 1152.2 445.337C1204.95 410.147 1278.28 384.467 1370.15 369.017C1443.58 356.667 1528.89 350.767 1623.82 351.517C1785.35 352.777 1920.46 373.107 1921.8 373.307L1920.91 374.927C1919.56 374.727 1784.81 354.457 1623.71 353.207C1475.16 352.067 1273.32 367.277 1154.74 446.377C1073.69 500.357 1009.87 519.507 952.079 519.507Z" fill="url(#paint25_linear_5073_47)"/>
<path d="M931.374 518.508H929.099C868.995 517.978 814.815 497.238 752.075 473.218C682.944 446.758 604.592 416.768 498.77 406.768C195.882 378.118 -0.99133 370.088 -2.94141 370.018L-2.70066 368.338C-0.738542 368.408 196.279 376.438 499.348 405.098C605.892 415.168 684.569 445.288 753.977 471.848C879.48 519.888 970.159 554.598 1135.29 440.598C1187.98 404.208 1262.16 377.598 1355.77 361.598C1430.57 348.808 1517.85 342.688 1615.26 343.418C1780.98 344.668 1920.36 365.618 1921.75 365.828L1920.86 367.448C1919.46 367.238 1780.44 346.338 1615.1 345.108C1462.82 343.988 1256.33 359.798 1137.87 441.598C1061.93 494.028 996.232 518.508 931.374 518.508Z" fill="url(#paint26_linear_5073_47)"/>
<path d="M910.527 517.827C849.87 517.827 793.643 497.077 728.4 472.997C660.99 448.117 584.588 419.927 483.4 406.997C182.017 368.657 -1.20577 365.337 -3.02344 365.317L-2.92714 363.597C-1.10947 363.597 182.451 366.957 484.159 405.377C585.948 418.377 662.615 446.627 730.265 471.587C859.729 519.367 953.272 553.887 1118.43 435.817C1171.02 398.227 1246.02 370.817 1341.35 354.207C1417.53 340.977 1506.85 334.627 1606.66 335.357C1776.6 336.587 1920.32 358.177 1921.75 358.357L1920.86 359.977C1919.43 359.757 1776.06 338.217 1606.55 336.977C1450.28 335.857 1239.25 352.247 1121.03 436.757C1037.25 496.767 971.617 517.827 910.527 517.827Z" fill="url(#paint27_linear_5073_47)"/>
<path d="M889.181 517.279C828.114 517.279 769.865 496.429 702.599 472.359C637.452 449.049 563.626 422.629 468.012 407.359C167.881 359.259 -1.4144 360.599 -3.09965 360.599L-3.17188 358.919C-1.48662 358.919 168.363 357.559 468.975 405.699C565.047 421.089 639.102 447.589 704.429 470.959C772.417 495.319 831.184 516.319 892.431 515.599C958.384 514.779 1024.84 487.949 1101.57 431.159C1153.99 392.359 1229.79 363.999 1326.84 346.879C1404.4 333.199 1495.65 326.639 1597.97 327.349C1772.17 328.569 1920.28 350.809 1921.78 351.039L1920.89 352.659C1919.41 352.429 1771.63 330.249 1597.9 329.029C1437.8 327.879 1222.1 344.889 1104.23 432.129C1026.88 489.389 959.612 516.449 892.539 517.289L889.181 517.279Z" fill="url(#paint28_linear_5073_47)"/>
<path d="M867.516 517.079C805.607 517.079 745.853 496.179 674.266 471.159C612.116 449.409 541.624 424.769 452.667 407.599C153.607 349.889 -1.59217 355.839 -3.15705 355.909L-3.42188 354.229C-1.89311 354.159 153.944 348.159 453.787 406.019C543.093 423.259 613.753 447.959 676.095 469.759C750.885 495.909 809.977 516.599 872.8 515.319C940.885 513.979 1006.24 486.559 1084.66 426.409C1136.88 386.409 1213.46 357.119 1312.17 339.409C1391.08 325.289 1484.31 318.479 1589.14 319.209C1767.6 320.429 1920.17 343.329 1921.66 343.559L1920.77 345.169C1919.25 344.939 1767.07 322.099 1589.03 320.889C1424.96 319.769 1204.69 337.339 1087.28 427.329C1000.75 493.749 932.952 517.069 867.516 517.079Z" fill="url(#paint29_linear_5073_47)"/>
<path d="M845.631 517.109C782.049 517.109 719.514 495.539 643.004 469.159C584.61 449.019 518.416 426.159 437.307 407.879C138.993 340.519 -1.80933 351.079 -3.19364 351.199L-3.69922 349.539C-2.30287 349.419 139.246 338.739 438.583 406.339C519.956 424.709 586.271 447.599 644.822 467.749C732.25 497.909 801.309 521.749 873.931 513.929C935.323 507.339 996.907 478.039 1067.88 421.689C1119.85 380.429 1197.14 350.259 1297.6 332.019C1377.87 317.449 1472.99 310.429 1580.49 311.139C1763.24 312.359 1920.28 335.929 1921.84 336.139L1920.95 337.749C1919.39 337.519 1762.71 314.009 1580.38 312.749C1412.31 311.619 1187.47 329.749 1070.64 422.529C999.158 479.279 936.876 508.819 874.642 515.529C865.023 516.573 855.332 517.101 845.631 517.109Z" fill="url(#paint30_linear_5073_47)"/>
<path d="M823.759 517.417C757.36 517.417 690.227 494.317 608.095 466.057C554.54 447.597 493.883 426.757 421.959 408.157C124.175 331.137 -1.96566 346.317 -3.20552 346.477L-4 344.847C-2.79625 344.687 124.284 329.287 423.332 406.647C495.436 425.297 556.202 446.197 609.817 464.647C703.818 496.987 778.053 522.527 853.347 514.107C916.123 507.107 978.911 476.207 1050.93 416.967C1102.66 374.457 1180.65 343.387 1282.81 324.597C1364.42 309.597 1461.55 302.337 1571.49 303.047C1758.58 304.267 1920.16 328.507 1921.78 328.747L1920.89 330.367C1919.28 330.127 1758.05 305.947 1571.4 304.727C1399.42 303.607 1169.9 322.327 1053.78 417.877C981.186 477.517 917.748 508.597 854.07 515.747C844.023 516.87 833.897 517.428 823.759 517.417Z" fill="url(#paint31_linear_5073_47)"/>
</g>
<g opacity="0.1">
<path d="M1451.1 279.657C1393.09 279.657 1341.63 269.657 1295.72 249.487C1226 218.917 1181.17 170.727 1141.62 128.227C1102.07 85.7269 1067.85 48.9469 1021.56 47.1269C989.235 45.8469 951.662 61.7469 906.463 95.7269C827.173 155.347 729.772 197.357 616.969 220.597C526.717 239.187 426.471 245.877 318.991 240.457C136.218 231.247 -6.02731 189.597 -7.4375 189.157L-5.79432 187.697C-4.38414 188.117 137.334 229.627 319.469 238.787C487.465 247.247 725.1 229.107 903.753 94.7869C950.35 59.7869 987.849 44.1269 1021.8 45.4569C1070 47.3569 1104.56 84.4568 1144.59 127.457C1183.99 169.817 1228.66 217.827 1297.87 248.167C1377.96 283.287 1475.3 287.267 1595.46 260.337C1788.79 217.017 1948.42 255.437 1950 255.827L1948.58 257.347C1947 256.957 1788.66 218.887 1596.77 261.887C1544.04 273.737 1495.63 279.657 1451.1 279.657Z" fill="url(#paint32_linear_5073_47)"/>
<path d="M1429.92 276.707C1375.8 276.707 1327.43 267.557 1283.89 249.227C1214.79 220.137 1169.47 173.077 1129.47 131.557C1088.58 89.0975 1053.27 52.4375 1005.41 50.4575C972.851 49.1175 935.426 64.0175 890.876 96.0375C811.562 153.037 714.958 193.167 603.738 215.287C514.761 232.987 416.317 239.287 311.13 233.967C132.097 224.967 -6.22426 184.867 -7.59766 184.457L-5.96674 182.997C-4.59334 183.397 133.237 223.318 311.559 232.298C476.048 240.598 709.489 223.497 888.203 95.0575C933.476 62.5175 971.956 47.3675 1005.67 48.7775C1055.39 50.8275 1091.09 87.8975 1132.42 130.777C1172.26 172.147 1217.41 219.037 1285.97 247.897C1365.17 281.227 1460.76 283.757 1578.25 255.627C1773.67 208.837 1948.22 248.007 1949.96 248.407L1948.62 249.947C1946.89 249.548 1773.64 210.697 1579.65 257.157C1525.31 270.187 1475.57 276.707 1429.92 276.707Z" fill="url(#paint33_linear_5073_47)"/>
<path d="M1409.22 273.756C1358.75 273.756 1313.28 265.446 1272.03 248.756C1203.56 221.116 1157.74 175.186 1117.33 134.666C1075.13 92.3659 1038.69 55.8259 989.27 53.6659C956.59 52.2559 919.263 66.1859 875.339 96.2959C796.012 150.676 700.205 188.906 590.578 209.926C502.889 226.726 406.224 232.616 303.292 227.416C128.061 218.596 -6.40948 180.146 -7.74609 179.756L-6.1397 178.286C-4.80309 178.676 129.165 216.996 303.673 225.796C464.593 233.926 693.927 217.876 872.653 95.3359C917.301 64.7259 955.523 50.5459 989.49 52.0359C1040.72 54.2659 1077.55 91.1859 1120.18 133.936C1201.44 215.406 1302.55 316.786 1561.05 250.936C1758.71 200.596 1948.04 240.596 1949.93 241.006L1948.7 242.556C1946.82 242.156 1758.77 202.456 1562.57 252.436C1506.75 266.646 1455.82 273.756 1409.22 273.756Z" fill="url(#paint34_linear_5073_47)"/>
<path d="M1388.28 270.899C1242.65 270.899 1167.96 198.599 1105.01 137.689C1061.53 95.6085 1023.97 59.2586 973.021 56.9186C940.096 55.4186 903.026 68.4085 859.715 96.6585C780.377 148.419 685.379 184.749 577.371 204.659C490.945 220.599 396.082 226.059 295.382 220.959C124.014 212.289 -6.60642 175.429 -7.90625 175.059L-6.31212 173.599C-5.0123 173.969 125.105 210.679 295.812 219.299C453.213 227.249 678.402 212.239 857.116 95.6285C901.175 66.8885 939.189 53.6885 973.303 55.2485C1026.03 57.6785 1063.97 94.3885 1107.91 136.909C1189.64 215.989 1291.34 314.409 1543.85 246.219C1743.66 192.219 1947.85 233.169 1949.9 233.589L1948.68 235.149C1946.65 234.739 1743.83 194.149 1545.39 247.709C1485.09 263.979 1433.29 270.889 1388.28 270.899Z" fill="url(#paint35_linear_5073_47)"/>
<path d="M1368.98 267.919C1350.18 267.956 1331.42 266.617 1312.92 263.919C1208.35 248.479 1146.88 191.109 1092.65 140.489C1047.89 98.6987 1009.27 62.6087 956.76 60.0587C923.651 58.4587 886.863 70.5187 844.116 96.9687C764.79 146.099 670.614 180.529 564.2 199.309C479.086 214.309 386.001 219.419 287.545 214.439C119.978 205.959 -6.75486 170.719 -8.05469 170.359L-6.47282 168.889C-5.24657 169.239 121.057 204.339 287.975 212.769C441.894 220.539 662.876 206.599 841.578 95.8987C885.036 68.9887 922.817 56.7187 957.066 58.3787C1011.28 61.0187 1050.32 97.4687 1095.53 139.679C1149.49 190.009 1210.57 247.059 1313.81 262.299C1375.83 271.469 1445.46 264.649 1526.64 241.489C1728.71 183.819 1947.66 225.729 1949.85 226.159L1948.62 227.729C1946.45 227.299 1728.89 185.729 1528.19 242.959C1469.77 259.649 1417.17 267.919 1368.98 267.919Z" fill="url(#paint36_linear_5073_47)"/>
<path d="M1349.14 264.988C1332.15 265.017 1315.2 263.886 1298.44 261.608C1196.25 247.608 1134.58 192.088 1080.17 143.118C1034.15 101.698 994.408 65.9184 940.379 63.1184C907.16 61.3884 870.483 72.5684 828.41 97.2684C749.121 143.758 655.791 176.268 550.983 193.938C467.157 208.068 375.863 212.758 279.639 207.888C115.971 199.598 -6.98523 165.998 -8.19922 165.658L-6.64188 164.178C-5.41563 164.518 117.038 197.998 280.178 206.238C430.602 213.838 647.428 200.918 826.056 96.1784C868.975 71.0384 906.461 59.6984 940.821 61.4584C996.468 64.3284 1036.6 100.458 1083.07 142.288C1137.16 190.968 1198.46 246.148 1299.33 259.988C1360.74 268.408 1429.48 260.808 1509.47 236.758C1616.28 204.648 1730.32 201.458 1807.19 204.428C1890.44 207.658 1949.28 218.618 1949.85 218.728L1948.73 220.308C1946.4 219.868 1714.12 177.178 1511.14 238.218C1451.58 256.118 1398.19 264.988 1349.14 264.988Z" fill="url(#paint37_linear_5073_47)"/>
<path d="M1329.62 262.057C1314.33 262.08 1299.05 261.137 1283.94 259.237C1184.07 246.597 1122.28 192.927 1067.67 145.597C1020.42 104.597 979.621 69.2067 924.194 66.1667C890.865 64.3267 854.47 74.5967 812.924 97.5967C733.696 141.447 641.249 172.067 538.023 188.597C455.485 201.827 365.968 206.117 271.927 201.357C111.987 193.277 -7.16764 161.277 -8.32031 160.957L-6.77524 159.477C-5.54899 159.797 113.079 191.647 272.454 199.697C419.408 207.127 632.065 195.237 810.558 96.4467C852.851 73.0467 890.154 62.5967 924.599 64.4467C981.681 67.5867 1022.87 103.317 1070.52 144.697C1124.74 191.777 1186.2 245.117 1284.72 257.597C1345.56 265.307 1413.48 256.937 1492.28 232.027C1600.29 197.897 1718.95 194.077 1799.47 196.877C1886.68 199.877 1949.22 211.177 1949.84 211.287L1948.74 212.877C1948.13 212.767 1885.93 201.577 1799.14 198.557C1719.11 195.767 1601.22 199.557 1494 233.457C1433.47 252.597 1379.26 262.057 1329.62 262.057Z" fill="url(#paint38_linear_5073_47)"/>
<path d="M1310.23 259.136C1296.53 259.15 1282.85 258.371 1269.28 256.806C1171.7 245.436 1109.7 193.596 1055 147.896C1008.58 109.096 964.731 72.4455 907.845 69.1155C874.454 67.1155 838.28 76.5755 797.298 97.9055C718.156 139.116 626.531 167.826 524.973 183.236C443.758 195.596 356.032 199.466 264.247 194.826C108.035 186.926 -7.35514 156.596 -8.50781 156.256L-6.98726 154.766C-5.84685 155.066 109.065 185.296 264.689 193.156C408.16 200.406 616.684 189.556 794.993 96.7255C836.686 74.9955 873.768 65.4155 908.25 67.4455C966.705 70.8655 1010.95 107.856 1057.85 147.016C1112.21 192.456 1173.82 243.956 1270.05 255.166C1330.34 262.166 1397.41 253.076 1475.13 227.316C1584.27 191.116 1707.62 186.676 1791.78 189.316C1882.95 192.176 1949.21 203.746 1949.88 203.866L1948.8 205.456C1948.15 205.346 1882.22 193.836 1791.48 190.986C1707.8 188.366 1585.34 192.786 1476.91 228.716C1415.45 249.076 1360.52 259.136 1310.23 259.136Z" fill="url(#paint39_linear_5073_47)"/>
<path d="M1291 256.227C1278.8 256.235 1266.62 255.6 1254.52 254.327C1159.17 244.187 1097.02 194.177 1042.21 150.057C994.691 111.807 949.798 75.6765 891.551 72.0565C858.062 69.9665 822.157 78.5266 781.728 98.2566C702.696 136.777 611.953 163.597 512.026 177.867C432.099 189.297 346.151 192.807 256.549 188.277C104.114 180.597 -7.53646 151.847 -8.65234 151.597L-7.09501 150.057C-5.99138 150.347 105.193 178.947 257.076 186.607C397.139 193.687 601.469 183.867 779.52 97.0066C820.624 76.9066 857.412 68.1966 891.943 70.3566C951.735 74.0966 997.033 110.557 1044.98 149.147C1099.45 192.987 1161.19 242.687 1255.2 252.677C1314.91 259.017 1381.23 249.187 1457.89 222.587C1568.26 184.297 1696.16 179.237 1783.99 181.727C1879.12 184.427 1949.12 196.337 1949.82 196.457L1948.76 198.047C1948.08 197.927 1878.43 186.047 1783.72 183.407C1696.43 180.947 1569.34 185.967 1459.73 223.987C1397.5 245.597 1341.92 256.227 1291 256.227Z" fill="url(#paint40_linear_5073_47)"/>
<path d="M1271.89 253.329C1261.11 253.336 1250.34 252.829 1239.64 251.809C1146.44 242.809 1084.17 194.619 1029.26 152.069C980.677 114.439 934.84 78.8894 875.195 74.8894C841.694 72.6494 806.01 80.3794 766.059 98.5394C687.174 134.439 597.339 159.329 499.043 172.539C420.428 183.069 336.258 186.179 248.887 181.769C100.229 174.219 -7.71777 147.139 -8.79688 146.869L-7.33764 145.359C-6.2708 145.629 101.235 172.589 249.39 180.059C386.031 186.949 586.217 178.169 763.95 97.2794C804.612 78.7794 841.203 70.8994 875.649 73.2194C936.728 77.3194 983.019 113.219 1032.02 151.139C1086.58 193.409 1148.42 241.319 1240.26 250.139C1299.51 255.839 1365.07 245.279 1440.71 217.859C1552.29 177.419 1684.73 171.739 1776.24 174.089C1875.34 176.639 1949.07 188.899 1949.81 189.019L1948.78 190.599C1948.05 190.479 1874.65 178.279 1775.99 175.749C1685.02 173.419 1553.35 179.069 1442.61 219.209C1379.6 242.079 1323.39 253.329 1271.89 253.329Z" fill="url(#paint41_linear_5073_47)"/>
<path d="M1252.9 250.456C1243.48 250.461 1234.07 250.06 1224.7 249.256C1133.59 241.416 1073.87 196.946 1016.23 153.946C966.645 116.946 919.815 82.0859 858.932 77.6959C825.418 75.2859 789.955 82.2059 750.555 98.8559C671.855 132.106 582.952 155.066 486.298 167.116C409.045 176.756 326.616 179.466 241.428 175.176C96.412 167.866 -7.86839 142.426 -8.89844 142.176L-7.47599 140.656C-6.44594 140.916 97.4053 166.246 241.87 173.516C375.102 180.216 571.143 172.516 748.459 97.5159C788.618 80.5159 824.903 73.5159 859.398 75.9859C921.703 80.4759 968.938 115.676 1018.94 152.986C1076.25 195.696 1135.51 239.856 1225.24 247.586C1284.01 252.646 1348.89 241.376 1423.56 213.126C1536.21 170.516 1673.32 164.216 1768.5 166.436C1871.51 168.836 1949.06 181.436 1949.83 181.596L1948.82 183.196C1948.05 183.066 1870.91 170.496 1768.26 168.116C1673.63 165.906 1537.35 172.176 1425.51 214.486C1361.76 238.596 1304.99 250.446 1252.9 250.456Z" fill="url(#paint42_linear_5073_47)"/>
<path d="M1233.96 247.599C1225.72 247.599 1217.58 247.292 1209.55 246.679C1120.48 239.909 1060.74 197.099 1002.97 155.679C952.434 119.459 904.696 85.2589 842.598 80.4489C809.048 77.8489 773.83 83.9689 734.897 99.1489C557.188 168.449 364.36 175.149 233.9 168.609C92.5742 161.519 -8.08877 137.709 -9.08203 137.469L-7.69637 135.949C-6.7031 136.179 93.5429 159.879 234.329 166.949C364.189 173.469 556.085 166.769 732.91 97.8189C772.592 82.3489 808.619 76.1289 843.089 78.8189C906.56 83.7389 954.678 118.229 1005.64 154.739C1063.02 195.859 1122.34 238.379 1210.03 245.049C1268.36 249.489 1332.66 237.509 1406.33 208.439C1520.07 163.609 1661.8 156.689 1760.66 158.779C1867.71 161.049 1948.98 174.079 1949.78 174.209L1948.79 175.809C1947.99 175.679 1867.06 162.709 1760.43 160.459C1662.14 158.389 1521.32 165.259 1408.33 209.779C1343.94 235.139 1286.6 247.599 1233.96 247.599Z" fill="url(#paint43_linear_5073_47)"/>
<path d="M1215.06 244.788C1208.07 244.788 1201.16 244.564 1194.31 244.118C1107.25 238.368 1047.41 197.168 989.53 157.328C913.613 105.038 841.902 55.6577 719.252 99.4877C542.145 162.788 353.511 168.488 226.434 162.088C88.8245 155.168 -8.25782 132.998 -9.22656 132.768L-7.86542 131.238C-6.90895 131.458 89.7687 153.538 226.913 160.408C353.4 166.758 541.164 161.098 717.413 98.1077C842.674 53.3277 915.305 103.358 992.203 156.328C1049.63 195.878 1109.02 236.788 1194.73 242.448C1252.68 246.268 1316.28 233.598 1389.14 203.698C1503.93 156.598 1650.33 149.058 1752.82 151.048C1863.87 153.188 1948.94 166.628 1949.78 166.758L1948.8 168.368C1947.96 168.238 1863.23 154.858 1752.6 152.728C1650.64 150.728 1505.14 158.248 1391.19 205.008C1326.15 231.698 1268.28 244.788 1215.06 244.788Z" fill="url(#paint44_linear_5073_47)"/>
<path d="M1196.19 242.016C1190.38 242.016 1184.63 241.856 1178.94 241.536C1093.76 236.776 1033.88 197.156 975.978 158.846C899.056 107.966 826.376 59.9064 703.665 99.7964C527.281 157.126 342.816 161.796 219.124 155.556C85.1316 148.826 -8.43133 128.276 -9.36328 128.076L-8.05119 126.526C-7.09472 126.736 86.1004 147.196 219.553 153.886C342.706 160.056 526.361 155.426 701.899 98.3763C827.173 57.6663 900.723 106.306 978.566 157.816C1036.05 195.816 1095.5 235.176 1179.29 239.816C1236.92 243.046 1299.9 229.666 1371.96 198.916C1487.72 149.526 1638.69 141.386 1744.96 143.256C1859.99 145.256 1948.89 159.146 1949.74 159.256L1948.78 160.866C1947.9 160.726 1859.36 146.866 1744.73 144.866C1639.09 143.016 1488.98 151.106 1374.03 200.146C1308.37 228.286 1249.97 242.016 1196.19 242.016Z" fill="url(#paint45_linear_5073_47)"/>
<path d="M1177.32 239.298C1172.66 239.298 1168.03 239.191 1163.42 238.978C1080.04 235.158 1020.15 197.088 962.183 160.268C884.39 110.848 810.815 64.1679 688.031 100.118C512.493 151.488 332.185 155.118 211.853 149.048C81.49 142.508 -8.60266 123.598 -9.54688 123.378L-8.32062 121.818C-7.43772 122.008 82.2871 140.818 212.196 147.378C332.05 153.378 511.573 149.788 686.326 98.6479C742.599 82.1779 794.052 81.5779 843.617 96.8179C887.762 110.378 925.102 134.098 964.648 159.208C1022.18 195.758 1081.68 233.538 1163.63 237.308C1220.92 239.948 1283.39 225.848 1354.68 194.248C1471.38 142.518 1627.01 133.778 1736.95 135.538C1856.02 137.448 1948.76 151.768 1949.68 151.918L1948.73 153.528C1947.81 153.388 1855.41 139.118 1736.77 137.218C1627.41 135.468 1472.71 144.158 1356.83 195.518C1290.61 224.918 1231.68 239.298 1177.32 239.298Z" fill="url(#paint46_linear_5073_47)"/>
<path d="M1158.41 236.596C1154.84 236.596 1151.29 236.533 1147.76 236.406C1066.21 233.516 1006.19 196.956 948.155 161.596C869.516 113.686 795.254 68.4459 672.396 100.426C497.802 145.886 321.688 148.426 204.667 142.556C77.897 136.196 -8.77444 118.856 -9.63281 118.676L-8.40656 117.116C-7.57271 117.286 78.7431 134.596 205.047 140.886C321.541 146.726 497.017 144.186 670.863 98.886C796.1 66.336 874.666 114.206 950.608 160.506C1008.24 195.596 1067.82 231.886 1148.03 234.766C1205.05 236.766 1266.98 222.016 1337.62 189.526C1455.19 135.426 1615.41 126.066 1729.12 127.746C1852.22 129.556 1948.84 144.346 1949.84 144.496L1948.89 146.106C1947.93 145.956 1851.66 131.226 1728.98 129.426C1615.87 127.746 1456.58 137.056 1339.86 190.776C1272.83 221.596 1213.37 236.596 1158.41 236.596Z" fill="url(#paint47_linear_5073_47)"/>
<path d="M1139.45 234.057C1137 234.057 1134.44 234.057 1131.94 233.957C1052.08 231.897 991.971 196.787 933.847 162.837C858.003 118.527 779.572 72.7269 656.714 100.747C483.175 140.337 311.206 141.827 197.495 136.107C74.3552 129.917 -8.93177 114.147 -9.76562 113.987L-8.61295 112.407C-7.79136 112.567 75.1768 128.267 197.974 134.407C311.267 140.097 482.574 138.607 655.365 99.1769C780.443 70.6569 859.634 116.927 936.262 161.687C993.896 195.377 1053.58 230.217 1132.05 232.247C1188.76 233.697 1250.37 218.177 1320.34 184.767C1438.71 128.257 1603.6 118.297 1721.01 119.887C1848.16 121.617 1948.7 136.887 1949.7 137.037L1948.75 138.657C1947.76 138.497 1847.58 123.287 1720.85 121.577C1603.99 119.997 1440.04 129.887 1322.58 186.007C1255.05 218.307 1195.03 234.047 1139.45 234.057Z" fill="url(#paint48_linear_5073_47)"/>
<path d="M1120.44 231.596H1115.96C1037.67 230.286 977.487 196.596 919.252 163.986C842.832 121.226 763.812 76.9857 641.114 101.056C468.691 134.836 300.927 135.276 190.503 129.696C70.858 123.696 -9.10582 109.426 -9.89062 109.286L-8.81152 107.696C-8.01446 107.836 71.6551 122.006 190.933 128.026C300.976 133.586 468.2 133.136 639.949 99.4757C764.732 75.0257 844.512 119.676 921.668 162.846C982.11 196.676 1039.2 228.626 1116.05 229.846C1172.56 230.726 1233.77 214.456 1303.22 180.086C1422.3 121.086 1591.81 110.576 1713.02 112.086C1844.23 113.726 1948.71 129.496 1949.76 129.656L1948.82 131.266C1947.78 131.106 1843.65 115.396 1712.86 113.766C1592.27 112.256 1423.74 122.766 1305.5 181.296C1237.23 215.086 1176.64 231.596 1120.44 231.596Z" fill="url(#paint49_linear_5073_47)"/>
<path d="M1101.34 229.149H1099.78C1023.08 228.719 965.37 197.809 904.265 165.079C827.392 123.889 747.894 81.299 625.465 101.369C454.329 129.369 290.698 128.799 183.512 123.369C67.4104 117.429 -9.26707 104.719 -10.0273 104.599L-8.99729 102.999C-5.96845 103.509 298.007 153.269 624.46 99.769C748.863 79.389 829.072 122.369 906.644 163.919C967.246 196.389 1024.49 227.059 1099.82 227.469C1156.22 227.859 1217.09 210.739 1286.03 175.369C1405.75 113.929 1579.91 102.769 1704.9 104.219C1840.2 105.789 1948.68 122.069 1949.75 122.219L1948.82 123.829C1947.74 123.669 1839.69 107.439 1704.8 105.879C1580.53 104.429 1407.31 115.529 1288.41 176.539C1219.39 211.929 1158.2 229.149 1101.34 229.149Z" fill="url(#paint50_linear_5073_47)"/>
<path d="M1082.07 226.857C1007.43 226.857 949.822 197.337 888.853 166.087C811.599 126.517 731.819 85.5972 609.807 101.677C503.859 115.677 401.345 120.357 311.313 120.357C125.095 120.357 -8.18644 100.197 -10.1484 99.8972L-9.19196 98.2772C-6.28575 98.7272 284.912 142.747 608.998 100.047C732.849 83.7272 813.316 124.987 891.171 164.887C952.005 196.067 1009.34 225.507 1083.37 225.177C1139.65 224.907 1200.32 207.067 1268.86 170.637C1389.14 106.637 1567.94 94.8972 1696.72 96.3072C1836.13 97.8172 1948.64 114.637 1949.76 114.807L1948.82 116.417C1947.71 116.247 1835.56 99.4872 1696.57 97.9872C1568.48 96.6272 1390.66 108.297 1271.21 171.797C1201.99 208.597 1140.6 226.597 1083.41 226.857H1082.07Z" fill="url(#paint51_linear_5073_47)"/>
<path d="M1062.65 224.697C990.633 224.697 933.416 196.697 872.901 167.017C795.5 129.097 715.475 89.8869 594.15 102.017C499.422 111.467 408.36 114.807 327.011 114.807C131.473 114.777 -8.31979 95.4769 -10.2695 95.1969L-9.39889 93.5969C-6.6153 93.9869 271.891 132.417 593.524 100.347C716.517 88.0769 797.168 127.597 875.169 165.797C936.323 195.797 994.116 224.047 1066.72 222.987C1122.95 222.147 1183.45 203.477 1251.67 165.907C1372.43 99.4169 1555.78 87.0469 1688.48 88.3869C1831.95 89.8369 1948.59 107.207 1949.76 107.387L1948.83 109.007C1947.67 108.827 1831.45 91.5169 1688.33 90.0869C1556.46 88.7469 1373.98 101.037 1254.07 167.087C1185.21 204.997 1123.96 223.847 1066.81 224.697H1062.65Z" fill="url(#paint52_linear_5073_47)"/>
<path d="M1043.06 222.698C973.389 222.698 916.467 196.038 856.295 167.868C778.93 131.598 698.819 94.1282 578.487 102.288C258.681 123.918 -7.73411 90.8382 -10.3828 90.4982L-9.54896 88.8682C-6.90026 89.1982 258.926 122.208 578.107 100.618C699.984 92.3882 784.228 131.818 858.563 166.618C920.182 195.468 978.417 222.678 1049.86 220.918C1106.12 219.488 1166.52 199.918 1234.53 161.178C1288.05 130.668 1358.97 108.468 1445.37 95.1782C1514.36 84.5982 1593.36 79.5982 1680.22 80.4482C1827.91 81.8482 1948.61 99.7782 1949.82 99.9582L1948.77 101.598C1947.55 101.418 1827.24 83.5382 1679.98 82.1582C1544.22 80.8682 1357.16 93.7482 1236.87 162.338C1168.3 201.438 1107.15 221.158 1049.93 222.598C1047.66 222.668 1045.35 222.698 1043.06 222.698Z" fill="url(#paint53_linear_5073_47)"/>
<path d="M1023.27 220.848C955.672 220.848 898.896 195.448 838.92 168.628C765.272 135.688 681.776 98.358 562.83 102.628C245.574 113.868 -7.97783 86.088 -10.5039 85.808L-9.80494 84.158C-7.27887 84.438 245.844 112.158 562.597 100.908C682.941 96.638 766.952 134.198 841.078 167.358C903.335 195.198 962.097 221.488 1032.64 218.998C1089.05 216.998 1149.42 196.538 1217.3 156.468C1270.94 124.808 1342.86 101.748 1431.06 87.928C1501.55 76.928 1582.6 71.698 1671.79 72.488C1823.66 73.838 1948.51 92.348 1949.76 92.538L1948.82 94.158C1947.6 93.968 1823.1 75.518 1671.69 74.158C1532.07 72.918 1340.38 86.388 1219.82 157.558C1151.33 197.988 1090.19 218.638 1032.91 220.668C1029.65 220.798 1026.45 220.848 1023.27 220.848Z" fill="url(#paint54_linear_5073_47)"/>
<path d="M1002.99 219.047C937.079 219.047 881.076 195.107 820.622 169.277C747.77 138.147 665.243 102.877 549.179 102.877H547.168C232.315 103.967 -8.226 81.3366 -10.6172 81.1066L-10.0163 79.4465C-7.62513 79.6765 232.671 102.297 547.131 101.197H549.191C666.433 101.197 749.438 136.667 822.719 167.977C878.329 191.737 930.837 214.187 989.623 217.167C1054.84 220.497 1121.67 199.687 1200.12 151.747C1253.83 118.917 1326.71 94.9866 1416.71 80.6366C1488.65 69.1566 1571.58 63.7065 1663.33 64.5065C1819.4 65.8165 1948.47 84.9165 1949.75 85.1165L1948.82 86.7265C1947.6 86.5365 1818.84 67.4965 1663.2 66.1865C1519.73 65.0065 1323.38 79.0366 1202.64 152.827C1122.89 201.597 1059.32 219.047 1002.99 219.047Z" fill="url(#paint55_linear_5073_47)"/>
<path d="M982.576 217.738C979.363 217.738 976.158 217.682 972.962 217.568C912.875 215.418 858.651 193.248 801.213 169.788C728.558 140.098 646.215 106.448 531.499 103.178C219.001 94.2484 -8.46809 76.5985 -10.7734 76.4085L-10.2707 74.7484C-8.01437 74.9284 219.308 92.5784 531.634 101.498C647.392 104.798 730.176 138.628 803.212 168.498C920.576 216.498 1013.29 254.338 1182.9 147.048C1236.64 113.048 1310.43 88.2485 1402.25 73.3485C1475.6 61.4285 1560.58 55.7684 1654.76 56.5284C1815.05 57.8184 1948.37 77.5285 1949.71 77.7285L1948.78 79.3384C1947.46 79.1384 1814.5 59.4884 1654.63 58.2184C1507.19 57.0384 1306.27 71.6785 1185.45 148.108C1110.62 195.448 1045.83 217.738 982.576 217.738Z" fill="url(#paint56_linear_5073_47)"/>
<path d="M961.95 216.507C899.043 216.507 843.163 194.647 780.465 170.117C708.742 142.047 627.441 110.237 515.803 103.467C205.427 84.5966 -8.70107 71.8366 -10.7734 71.7066L-10.3933 70.0366C-8.27189 70.1666 205.856 82.9566 516.269 101.797C628.79 108.617 710.471 140.577 782.525 168.797C843.838 192.797 896.75 213.497 956.26 214.797C1021.62 216.237 1088.16 193.187 1165.81 142.337C1219.55 107.147 1294.25 81.4666 1387.84 66.0166C1462.64 53.6666 1549.55 47.7666 1646.25 48.5166C1810.8 49.7766 1948.43 70.1066 1949.79 70.3066L1948.89 71.9266C1947.51 71.7266 1810.25 51.4566 1646.14 50.2066C1494.81 49.0666 1289.2 64.2766 1168.4 143.377C1085.84 197.357 1020.82 216.507 961.95 216.507Z" fill="url(#paint57_linear_5073_47)"/>
<path d="M940.857 215.508H938.54C877.313 214.978 822.119 194.238 758.207 170.218C687.784 143.758 607.967 113.768 500.167 103.768C191.618 75.1178 -8.93535 67.0878 -10.9219 67.0178L-10.6766 65.3377C-8.67784 65.4077 192.023 73.4377 500.756 102.098C609.291 112.168 689.439 142.288 760.145 168.848C887.994 216.888 980.367 251.598 1148.58 137.598C1202.26 101.208 1277.83 74.5977 1373.18 58.5977C1449.38 45.8077 1538.3 39.6877 1637.53 40.4177C1806.35 41.6677 1948.33 62.6178 1949.74 62.8278L1948.84 64.4477C1947.41 64.2377 1805.79 43.3378 1637.37 42.1078C1482.23 40.9878 1271.88 56.7977 1151.21 138.598C1073.86 191.028 1006.93 215.508 940.857 215.508Z" fill="url(#paint58_linear_5073_47)"/>
<path d="M919.622 214.827C857.832 214.827 800.553 194.077 734.091 169.997C665.421 145.117 587.59 116.927 484.512 103.997C177.495 65.6573 -9.15227 62.3373 -11.0039 62.3173L-10.9058 60.5973C-9.05417 60.5973 177.937 63.9573 485.284 102.377C588.976 115.377 667.076 143.627 735.991 168.587C867.875 216.367 963.167 250.887 1131.41 132.817C1184.98 95.2273 1261.39 67.8173 1358.5 51.2073C1436.11 37.9773 1527.09 31.6273 1628.76 32.3573C1801.89 33.5873 1948.29 55.1773 1949.75 55.3573L1948.84 56.9773C1947.38 56.7573 1801.33 35.2173 1628.65 33.9773C1469.46 32.8573 1254.49 49.2473 1134.06 133.757C1048.71 193.767 981.855 214.827 919.622 214.827Z" fill="url(#paint59_linear_5073_47)"/>
<path d="M897.876 214.279C835.668 214.279 776.33 193.429 707.807 169.359C641.442 146.049 566.236 119.629 468.835 104.359C163.094 56.2589 -9.36592 57.5989 -11.0827 57.5989L-11.1562 55.9189C-9.4395 55.9189 163.585 54.5589 469.816 102.699C567.683 118.089 643.122 144.589 709.671 167.959C778.93 192.319 838.795 213.319 901.187 212.599C968.373 211.779 1036.07 184.949 1114.24 128.159C1167.64 89.3589 1244.86 60.9989 1343.72 43.8789C1422.72 30.1989 1515.69 23.6389 1619.92 24.3489C1797.37 25.5689 1948.25 47.8089 1949.78 48.0389L1948.87 49.6589C1947.36 49.4289 1796.82 27.2489 1619.84 26.0289C1456.75 24.8789 1237.02 41.8889 1116.95 129.129C1038.15 186.389 969.624 213.449 901.297 214.289L897.876 214.279Z" fill="url(#paint60_linear_5073_47)"/>
<path d="M875.807 214.079C812.741 214.079 751.87 193.179 678.945 168.159C615.633 146.409 543.824 121.769 453.204 104.599C148.554 46.8893 -9.54625 52.8393 -11.1404 52.9093L-11.4102 51.2293C-9.85282 51.1593 148.898 45.1593 454.344 103.019C545.32 120.259 617.301 144.959 680.809 166.759C756.995 192.909 817.192 213.599 881.19 212.319C950.547 210.979 1017.12 183.559 1097.01 123.409C1150.21 83.4093 1228.22 54.1193 1328.77 36.4093C1409.15 22.2893 1504.13 15.4793 1610.92 16.2093C1792.71 17.4293 1948.14 40.3293 1949.66 40.5593L1948.75 42.1693C1947.19 41.9393 1792.17 19.0993 1610.81 17.8893C1443.67 16.7693 1219.28 34.3393 1099.68 124.329C1011.53 190.749 942.466 214.069 875.807 214.079Z" fill="url(#paint61_linear_5073_47)"/>
<path d="M853.511 214.109C788.74 214.109 725.036 192.539 647.096 166.159C587.61 146.019 520.179 123.159 437.554 104.879C133.664 37.5188 -9.7701 48.0788 -11.1803 48.1988L-11.6953 46.5388C-10.2729 46.4188 133.922 35.7388 438.854 103.339C521.748 121.709 589.302 144.599 648.947 164.749C738.01 194.909 808.36 218.749 882.34 210.929C944.878 204.339 1007.61 175.039 1079.91 118.689C1132.85 77.4288 1211.59 47.2588 1313.93 29.0188C1395.7 14.4488 1492.6 7.42877 1602.1 8.13877C1788.27 9.35877 1948.25 32.9288 1949.84 33.1388L1948.93 34.7488C1947.34 34.5188 1787.73 11.0088 1601.99 9.74877C1430.78 8.61877 1201.74 26.7488 1082.72 119.529C1009.91 176.279 946.46 205.819 883.063 212.529C873.264 213.573 863.393 214.101 853.511 214.109Z" fill="url(#paint62_linear_5073_47)"/>
<path d="M831.231 214.417C763.591 214.417 695.203 191.317 611.536 163.057C556.98 144.597 495.19 123.757 421.921 105.157C118.571 28.1375 -9.92764 43.3175 -11.1907 43.4775L-12 41.8475C-10.7737 41.6875 118.682 26.2874 423.319 103.647C496.771 122.297 558.673 143.197 613.29 161.647C709.048 193.987 784.671 219.527 861.373 211.107C925.322 204.107 989.283 173.207 1062.65 113.967C1115.34 71.4575 1194.79 40.3875 1298.86 21.5975C1382 6.59746 1480.95 -0.662542 1592.94 0.0474576C1783.53 1.26746 1948.13 25.5075 1949.78 25.7475L1948.87 27.3675C1947.23 27.1275 1782.99 2.94747 1592.84 1.72747C1417.65 0.607466 1183.84 19.3275 1065.56 114.877C991.601 174.517 926.977 205.597 862.108 212.747C851.874 213.87 841.558 214.428 831.231 214.417Z" fill="url(#paint63_linear_5073_47)"/>
</g>
<rect x="1453.31" y="133.145" width="22.6923" height="18.8114" rx="9.40571" fill="url(#paint64_linear_5073_47)"/>
<rect x="296" y="383.336" width="22.6923" height="18.8114" rx="9.40571" fill="url(#paint65_linear_5073_47)"/>
<rect width="19.4486" height="19.8533" rx="9.72432" transform="matrix(-0.733448 -0.679746 0.803267 -0.595619 663.129 578.629)" fill="url(#paint66_linear_5073_47)"/>
<rect width="20.6267" height="21.0559" rx="10" transform="matrix(-0.733448 -0.679746 0.803267 -0.595619 472.242 114.562)" fill="url(#paint67_linear_5073_47)"/>
<defs>
<linearGradient id="paint0_linear_5073_47" x1="0.476562" y1="465.516" x2="1921.96" y2="465.516" gradientUnits="userSpaceOnUse">
<stop stop-color="#EA7E06"/>
<stop offset="1" stop-color="#D63715"/>
</linearGradient>
<linearGradient id="paint1_linear_5073_47" x1="0.320312" y1="465.696" x2="1921.93" y2="465.696" gradientUnits="userSpaceOnUse">
<stop stop-color="#EA7E06"/>
<stop offset="1" stop-color="#D63715"/>
</linearGradient>
<linearGradient id="paint2_linear_5073_47" x1="0.175781" y1="465.841" x2="1921.89" y2="465.841" gradientUnits="userSpaceOnUse">
<stop stop-color="#EA7E06"/>
<stop offset="1" stop-color="#D63715"/>
</linearGradient>
<linearGradient id="paint3_linear_5073_47" x1="0.0195312" y1="466.01" x2="1921.87" y2="466.01" gradientUnits="userSpaceOnUse">
<stop stop-color="#EA7E06"/>
<stop offset="1" stop-color="#D63715"/>
</linearGradient>
<linearGradient id="paint4_linear_5073_47" x1="-0.125" y1="466.074" x2="1921.82" y2="466.074" gradientUnits="userSpaceOnUse">
<stop stop-color="#EA7E06"/>
<stop offset="1" stop-color="#D63715"/>
</linearGradient>
<linearGradient id="paint5_linear_5073_47" x1="-0.269531" y1="466.134" x2="1921.82" y2="466.134" gradientUnits="userSpaceOnUse">
<stop stop-color="#EA7E06"/>
<stop offset="1" stop-color="#D63715"/>
</linearGradient>
<linearGradient id="paint6_linear_5073_47" x1="-0.390625" y1="466.146" x2="1921.81" y2="466.146" gradientUnits="userSpaceOnUse">
<stop stop-color="#EA7E06"/>
<stop offset="1" stop-color="#D63715"/>
</linearGradient>
<linearGradient id="paint7_linear_5073_47" x1="-0.570312" y1="466.156" x2="1921.84" y2="466.156" gradientUnits="userSpaceOnUse">
<stop stop-color="#EA7E06"/>
<stop offset="1" stop-color="#D63715"/>
</linearGradient>
<linearGradient id="paint8_linear_5073_47" x1="-0.710938" y1="466.13" x2="1921.79" y2="466.13" gradientUnits="userSpaceOnUse">
<stop stop-color="#EA7E06"/>
<stop offset="1" stop-color="#D63715"/>
</linearGradient>
<linearGradient id="paint9_linear_5073_47" x1="-0.859375" y1="466.076" x2="1921.77" y2="466.076" gradientUnits="userSpaceOnUse">
<stop stop-color="#EA7E06"/>
<stop offset="1" stop-color="#D63715"/>
</linearGradient>
<linearGradient id="paint10_linear_5073_47" x1="-0.953125" y1="465.979" x2="1921.8" y2="465.979" gradientUnits="userSpaceOnUse">
<stop stop-color="#EA7E06"/>
<stop offset="1" stop-color="#D63715"/>
</linearGradient>
<linearGradient id="paint11_linear_5073_47" x1="-1.13672" y1="465.904" x2="1921.75" y2="465.904" gradientUnits="userSpaceOnUse">
<stop stop-color="#EA7E06"/>
<stop offset="1" stop-color="#D63715"/>
</linearGradient>
<linearGradient id="paint12_linear_5073_47" x1="-1.28125" y1="465.774" x2="1921.75" y2="465.774" gradientUnits="userSpaceOnUse">
<stop stop-color="#EA7E06"/>
<stop offset="1" stop-color="#D63715"/>
</linearGradient>
<linearGradient id="paint13_linear_5073_47" x1="-1.41016" y1="465.618" x2="1921.71" y2="465.618" gradientUnits="userSpaceOnUse">
<stop stop-color="#EA7E06"/>
<stop offset="1" stop-color="#D63715"/>
</linearGradient>
<linearGradient id="paint14_linear_5073_47" x1="-1.59375" y1="465.56" x2="1921.65" y2="465.56" gradientUnits="userSpaceOnUse">
<stop stop-color="#EA7E06"/>
<stop offset="1" stop-color="#D63715"/>
</linearGradient>
<linearGradient id="paint15_linear_5073_47" x1="-1.67578" y1="465.393" x2="1921.81" y2="465.393" gradientUnits="userSpaceOnUse">
<stop stop-color="#EA7E06"/>
<stop offset="1" stop-color="#D63715"/>
</linearGradient>
<linearGradient id="paint16_linear_5073_47" x1="-1.80469" y1="465.225" x2="1921.67" y2="465.225" gradientUnits="userSpaceOnUse">
<stop stop-color="#EA7E06"/>
<stop offset="1" stop-color="#D63715"/>
</linearGradient>
<linearGradient id="paint17_linear_5073_47" x1="-1.92969" y1="465.063" x2="1921.72" y2="465.063" gradientUnits="userSpaceOnUse">
<stop stop-color="#EA7E06"/>
<stop offset="1" stop-color="#D63715"/>
</linearGradient>
<linearGradient id="paint18_linear_5073_47" x1="-2.05859" y1="464.845" x2="1921.73" y2="464.845" gradientUnits="userSpaceOnUse">
<stop stop-color="#EA7E06"/>
<stop offset="1" stop-color="#D63715"/>
</linearGradient>
<linearGradient id="paint19_linear_5073_47" x1="-2.1875" y1="464.527" x2="1921.72" y2="464.527" gradientUnits="userSpaceOnUse">
<stop stop-color="#EA7E06"/>
<stop offset="1" stop-color="#D63715"/>
</linearGradient>
<linearGradient id="paint20_linear_5073_47" x1="-2.30469" y1="459.494" x2="1921.72" y2="459.494" gradientUnits="userSpaceOnUse">
<stop stop-color="#EA7E06"/>
<stop offset="1" stop-color="#D63715"/>
</linearGradient>
<linearGradient id="paint21_linear_5073_47" x1="-2.41406" y1="454.526" x2="1921.78" y2="454.526" gradientUnits="userSpaceOnUse">
<stop stop-color="#EA7E06"/>
<stop offset="1" stop-color="#D63715"/>
</linearGradient>
<linearGradient id="paint22_linear_5073_47" x1="-2.53516" y1="449.628" x2="1921.72" y2="449.628" gradientUnits="userSpaceOnUse">
<stop stop-color="#EA7E06"/>
<stop offset="1" stop-color="#D63715"/>
</linearGradient>
<linearGradient id="paint23_linear_5073_47" x1="-2.64062" y1="444.737" x2="1921.72" y2="444.737" gradientUnits="userSpaceOnUse">
<stop stop-color="#EA7E06"/>
<stop offset="1" stop-color="#D63715"/>
</linearGradient>
<linearGradient id="paint24_linear_5073_47" x1="-2.79688" y1="440.099" x2="1921.68" y2="440.099" gradientUnits="userSpaceOnUse">
<stop stop-color="#EA7E06"/>
<stop offset="1" stop-color="#D63715"/>
</linearGradient>
<linearGradient id="paint25_linear_5073_47" x1="-2.79688" y1="435.479" x2="1921.76" y2="435.479" gradientUnits="userSpaceOnUse">
<stop stop-color="#EA7E06"/>
<stop offset="1" stop-color="#D63715"/>
</linearGradient>
<linearGradient id="paint26_linear_5073_47" x1="-2.94141" y1="430.932" x2="1921.71" y2="430.932" gradientUnits="userSpaceOnUse">
<stop stop-color="#EA7E06"/>
<stop offset="1" stop-color="#D63715"/>
</linearGradient>
<linearGradient id="paint27_linear_5073_47" x1="-3.02344" y1="426.563" x2="1921.71" y2="426.563" gradientUnits="userSpaceOnUse">
<stop stop-color="#EA7E06"/>
<stop offset="1" stop-color="#D63715"/>
</linearGradient>
<linearGradient id="paint28_linear_5073_47" x1="-3.17188" y1="422.292" x2="1921.75" y2="422.292" gradientUnits="userSpaceOnUse">
<stop stop-color="#EA7E06"/>
<stop offset="1" stop-color="#D63715"/>
</linearGradient>
<linearGradient id="paint29_linear_5073_47" x1="-3.42188" y1="418.117" x2="1921.63" y2="418.117" gradientUnits="userSpaceOnUse">
<stop stop-color="#EA7E06"/>
<stop offset="1" stop-color="#D63715"/>
</linearGradient>
<linearGradient id="paint30_linear_5073_47" x1="-3.69922" y1="414.099" x2="1921.75" y2="414.099" gradientUnits="userSpaceOnUse">
<stop stop-color="#EA7D06"/>
<stop offset="1" stop-color="#D63715"/>
</linearGradient>
<linearGradient id="paint31_linear_5073_47" x1="-4" y1="410.207" x2="1921.75" y2="410.207" gradientUnits="userSpaceOnUse">
<stop stop-color="#EA7E06"/>
<stop offset="1" stop-color="#D63715"/>
</linearGradient>
<linearGradient id="paint32_linear_5073_47" x1="-7.4375" y1="162.516" x2="1949.97" y2="162.516" gradientUnits="userSpaceOnUse">
<stop stop-color="#EA7E06"/>
<stop offset="1" stop-color="#D63715"/>
</linearGradient>
<linearGradient id="paint33_linear_5073_47" x1="-7.59766" y1="162.696" x2="1949.93" y2="162.696" gradientUnits="userSpaceOnUse">
<stop stop-color="#EA7E06"/>
<stop offset="1" stop-color="#D63715"/>
</linearGradient>
<linearGradient id="paint34_linear_5073_47" x1="-7.74609" y1="162.841" x2="1949.89" y2="162.841" gradientUnits="userSpaceOnUse">
<stop stop-color="#EA7E06"/>
<stop offset="1" stop-color="#D63715"/>
</linearGradient>
<linearGradient id="paint35_linear_5073_47" x1="-7.90625" y1="163.01" x2="1949.86" y2="163.01" gradientUnits="userSpaceOnUse">
<stop stop-color="#EA7E06"/>
<stop offset="1" stop-color="#D63715"/>
</linearGradient>
<linearGradient id="paint36_linear_5073_47" x1="-8.05469" y1="163.074" x2="1949.81" y2="163.074" gradientUnits="userSpaceOnUse">
<stop stop-color="#EA7E06"/>
<stop offset="1" stop-color="#D63715"/>
</linearGradient>
<linearGradient id="paint37_linear_5073_47" x1="-8.19922" y1="163.134" x2="1949.82" y2="163.134" gradientUnits="userSpaceOnUse">
<stop stop-color="#EA7E06"/>
<stop offset="1" stop-color="#D63715"/>
</linearGradient>
<linearGradient id="paint38_linear_5073_47" x1="-8.32031" y1="163.146" x2="1949.81" y2="163.146" gradientUnits="userSpaceOnUse">
<stop stop-color="#EA7E06"/>
<stop offset="1" stop-color="#D63715"/>
</linearGradient>
<linearGradient id="paint39_linear_5073_47" x1="-8.50781" y1="163.156" x2="1949.84" y2="163.156" gradientUnits="userSpaceOnUse">
<stop stop-color="#EA7E06"/>
<stop offset="1" stop-color="#D63715"/>
</linearGradient>
<linearGradient id="paint40_linear_5073_47" x1="-8.65234" y1="163.13" x2="1949.78" y2="163.13" gradientUnits="userSpaceOnUse">
<stop stop-color="#EA7E06"/>
<stop offset="1" stop-color="#D63715"/>
</linearGradient>
<linearGradient id="paint41_linear_5073_47" x1="-8.79688" y1="163.076" x2="1949.77" y2="163.076" gradientUnits="userSpaceOnUse">
<stop stop-color="#EA7E06"/>
<stop offset="1" stop-color="#D63715"/>
</linearGradient>
<linearGradient id="paint42_linear_5073_47" x1="-8.89844" y1="162.979" x2="1949.79" y2="162.979" gradientUnits="userSpaceOnUse">
<stop stop-color="#EA7E06"/>
<stop offset="1" stop-color="#D63715"/>
</linearGradient>
<linearGradient id="paint43_linear_5073_47" x1="-9.08203" y1="162.904" x2="1949.74" y2="162.904" gradientUnits="userSpaceOnUse">
<stop stop-color="#EA7E06"/>
<stop offset="1" stop-color="#D63715"/>
</linearGradient>
<linearGradient id="paint44_linear_5073_47" x1="-9.22656" y1="162.774" x2="1949.75" y2="162.774" gradientUnits="userSpaceOnUse">
<stop stop-color="#EA7E06"/>
<stop offset="1" stop-color="#D63715"/>
</linearGradient>
<linearGradient id="paint45_linear_5073_47" x1="-9.36328" y1="162.618" x2="1949.71" y2="162.618" gradientUnits="userSpaceOnUse">
<stop stop-color="#EA7E06"/>
<stop offset="1" stop-color="#D63715"/>
</linearGradient>
<linearGradient id="paint46_linear_5073_47" x1="-9.54688" y1="162.56" x2="1949.65" y2="162.56" gradientUnits="userSpaceOnUse">
<stop stop-color="#EA7E06"/>
<stop offset="1" stop-color="#D63715"/>
</linearGradient>
<linearGradient id="paint47_linear_5073_47" x1="-9.63281" y1="162.393" x2="1949.81" y2="162.393" gradientUnits="userSpaceOnUse">
<stop stop-color="#EA7E06"/>
<stop offset="1" stop-color="#D63715"/>
</linearGradient>
<linearGradient id="paint48_linear_5073_47" x1="-9.76562" y1="162.225" x2="1949.66" y2="162.225" gradientUnits="userSpaceOnUse">
<stop stop-color="#EA7E06"/>
<stop offset="1" stop-color="#D63715"/>
</linearGradient>
<linearGradient id="paint49_linear_5073_47" x1="-9.89062" y1="162.063" x2="1949.72" y2="162.063" gradientUnits="userSpaceOnUse">
<stop stop-color="#EA7E06"/>
<stop offset="1" stop-color="#D63715"/>
</linearGradient>
<linearGradient id="paint50_linear_5073_47" x1="-10.0273" y1="161.845" x2="1949.72" y2="161.845" gradientUnits="userSpaceOnUse">
<stop stop-color="#EA7E06"/>
<stop offset="1" stop-color="#D63715"/>
</linearGradient>
<linearGradient id="paint51_linear_5073_47" x1="-10.1484" y1="161.527" x2="1949.72" y2="161.527" gradientUnits="userSpaceOnUse">
<stop stop-color="#EA7E06"/>
<stop offset="1" stop-color="#D63715"/>
</linearGradient>
<linearGradient id="paint52_linear_5073_47" x1="-10.2695" y1="156.494" x2="1949.72" y2="156.494" gradientUnits="userSpaceOnUse">
<stop stop-color="#EA7E06"/>
<stop offset="1" stop-color="#D63715"/>
</linearGradient>
<linearGradient id="paint53_linear_5073_47" x1="-10.3828" y1="151.526" x2="1949.78" y2="151.526" gradientUnits="userSpaceOnUse">
<stop stop-color="#EA7E06"/>
<stop offset="1" stop-color="#D63715"/>
</linearGradient>
<linearGradient id="paint54_linear_5073_47" x1="-10.5039" y1="146.628" x2="1949.72" y2="146.628" gradientUnits="userSpaceOnUse">
<stop stop-color="#EA7E06"/>
<stop offset="1" stop-color="#D63715"/>
</linearGradient>
<linearGradient id="paint55_linear_5073_47" x1="-10.6172" y1="141.737" x2="1949.72" y2="141.737" gradientUnits="userSpaceOnUse">
<stop stop-color="#EA7E06"/>
<stop offset="1" stop-color="#D63715"/>
</linearGradient>
<linearGradient id="paint56_linear_5073_47" x1="-10.7734" y1="137.099" x2="1949.67" y2="137.099" gradientUnits="userSpaceOnUse">
<stop stop-color="#EA7E06"/>
<stop offset="1" stop-color="#D63715"/>
</linearGradient>
<linearGradient id="paint57_linear_5073_47" x1="-10.7734" y1="132.479" x2="1949.76" y2="132.479" gradientUnits="userSpaceOnUse">
<stop stop-color="#EA7E06"/>
<stop offset="1" stop-color="#D63715"/>
</linearGradient>
<linearGradient id="paint58_linear_5073_47" x1="-10.9219" y1="127.932" x2="1949.71" y2="127.932" gradientUnits="userSpaceOnUse">
<stop stop-color="#EA7E06"/>
<stop offset="1" stop-color="#D63715"/>
</linearGradient>
<linearGradient id="paint59_linear_5073_47" x1="-11.0039" y1="123.563" x2="1949.71" y2="123.563" gradientUnits="userSpaceOnUse">
<stop stop-color="#EA7E06"/>
<stop offset="1" stop-color="#D63715"/>
</linearGradient>
<linearGradient id="paint60_linear_5073_47" x1="-11.1562" y1="119.292" x2="1949.74" y2="119.292" gradientUnits="userSpaceOnUse">
<stop stop-color="#EA7E06"/>
<stop offset="1" stop-color="#D63715"/>
</linearGradient>
<linearGradient id="paint61_linear_5073_47" x1="-11.4102" y1="115.117" x2="1949.62" y2="115.117" gradientUnits="userSpaceOnUse">
<stop stop-color="#EA7E06"/>
<stop offset="1" stop-color="#D63715"/>
</linearGradient>
<linearGradient id="paint62_linear_5073_47" x1="-11.6953" y1="111.099" x2="1949.74" y2="111.099" gradientUnits="userSpaceOnUse">
<stop stop-color="#EA7D06"/>
<stop offset="1" stop-color="#D63715"/>
</linearGradient>
<linearGradient id="paint63_linear_5073_47" x1="-12" y1="107.207" x2="1949.74" y2="107.207" gradientUnits="userSpaceOnUse">
<stop stop-color="#EA7E06"/>
<stop offset="1" stop-color="#D63715"/>
</linearGradient>
<linearGradient id="paint64_linear_5073_47" x1="1472.3" y1="142.55" x2="1458.48" y2="142.55" gradientUnits="userSpaceOnUse">
<stop stop-color="#D63715"/>
<stop offset="1" stop-color="#EA7D06"/>
<stop offset="1" stop-color="#E56D09"/>
</linearGradient>
<linearGradient id="paint65_linear_5073_47" x1="314.996" y1="392.742" x2="301.175" y2="392.742" gradientUnits="userSpaceOnUse">
<stop stop-color="#D63715"/>
<stop offset="1" stop-color="#EA7D06"/>
<stop offset="1" stop-color="#E56D09"/>
</linearGradient>
<linearGradient id="paint66_linear_5073_47" x1="16.2803" y1="9.92666" x2="4.43566" y2="9.92666" gradientUnits="userSpaceOnUse">
<stop stop-color="#D63715"/>
<stop offset="1" stop-color="#EA7D06"/>
<stop offset="1" stop-color="#E56D09"/>
</linearGradient>
<linearGradient id="paint67_linear_5073_47" x1="17.2665" y1="10.5279" x2="4.70433" y2="10.5279" gradientUnits="userSpaceOnUse">
<stop stop-color="#D63715"/>
<stop offset="1" stop-color="#EA7D06"/>
<stop offset="1" stop-color="#E56D09"/>
</linearGradient>
</defs>
</svg>
